<?xml version="1.0" encoding="UTF-8"?>
<svg id="uuid-dc190a20-ffdc-48e1-b180-2173c617bb18" data-name="Capa 1" xmlns="http://www.w3.org/2000/svg" width="1887.04" height="1712.44" viewBox="0 0 1887.04 1712.44">
  <defs>
    <style>
      .uuid-3136f7b2-01a8-4a27-b3d4-f06a1bedb71e {
        fill: #0276cc;
      }
    </style>
  </defs>
  <g id="uuid-07d2a128-18cc-4de9-9a24-3daaf5f46fae" data-name="4P9nsP.tif">
    <g>
      <polygon class="uuid-3136f7b2-01a8-4a27-b3d4-f06a1bedb71e" points="658.2 706.53 42.71 351.14 650.69 0 1265.45 355.03 658.2 706.53"/>
      <polygon class="uuid-3136f7b2-01a8-4a27-b3d4-f06a1bedb71e" points="615.13 1481.15 0 1126.48 .32 424.59 615.72 779.67 615.13 1481.15"/>
      <polygon class="uuid-3136f7b2-01a8-4a27-b3d4-f06a1bedb71e" points="1594.83 580.11 1378.45 705.27 1378.67 387.29 1594.75 262.77 1594.83 580.11"/>
      <polygon class="uuid-3136f7b2-01a8-4a27-b3d4-f06a1bedb71e" points="1086.3 873.69 1085.52 556.59 1301.69 431.95 1301.41 750.01 1086.3 873.69"/>
      <polygon class="uuid-3136f7b2-01a8-4a27-b3d4-f06a1bedb71e" points="793.14 1461.95 792.27 1145.27 1007.75 1021.04 1008.14 1338.44 793.14 1461.95"/>
      <polygon class="uuid-3136f7b2-01a8-4a27-b3d4-f06a1bedb71e" points="1378.55 1123.82 1377.94 807.43 1593.6 682.75 1593.69 1000.4 1378.55 1123.82"/>
      <polygon class="uuid-3136f7b2-01a8-4a27-b3d4-f06a1bedb71e" points="1887.04 830.62 1670.72 955.72 1670.76 638.12 1886.66 513.78 1887.04 830.62"/>
      <polygon class="uuid-3136f7b2-01a8-4a27-b3d4-f06a1bedb71e" points="1593.34 1418.97 1377.24 1543.78 1377.51 1226.52 1593.43 1101.73 1593.34 1418.97"/>
      <polygon class="uuid-3136f7b2-01a8-4a27-b3d4-f06a1bedb71e" points="1300.52 1588.33 1084.69 1712.44 1084.5 1395.7 1300.85 1270.75 1300.52 1588.33"/>
    </g>
  </g>
</svg>